<svg xmlns="http://www.w3.org/2000/svg" width="20" height="21" fill="none"><mask id="optimised__google-logotype-icon_svg__a" width="20" height="21" x="0" y="0" maskUnits="userSpaceOnUse" style="mask-type:luminance"><path fill="#fff" d="M20 .25H0v20h20z"/></mask><g mask="url(#optimised__google-logotype-icon_svg__a)"><path fill="#4285F4" d="M19.6 10.477c0-.709-.064-1.39-.182-2.045H10V12.3h5.382a4.6 4.6 0 0 1-1.996 3.018v2.51h3.232c1.891-1.742 2.982-4.305 2.982-7.35"/><path fill="#34A853" d="M10 20.25c2.7 0 4.964-.895 6.618-2.423l-3.232-2.509c-.895.6-2.04.955-3.386.955-2.605 0-4.81-1.76-5.595-4.123H1.063v2.59A10 10 0 0 0 10 20.25"/><path fill="#FBBC04" d="M4.405 12.15c-.2-.6-.314-1.24-.314-1.9s.114-1.3.313-1.9V5.76h-3.34A10 10 0 0 0 0 10.25c0 1.614.386 3.14 1.064 4.49z"/><path fill="#E94235" d="M10 4.227c1.468 0 2.786.505 3.823 1.496l2.868-2.868C14.959 1.24 12.695.25 10 .25c-3.91 0-7.29 2.24-8.936 5.51l3.34 2.59C5.192 5.986 7.396 4.227 10 4.227"/></g></svg>