<svg xmlns="http://www.w3.org/2000/svg" width="26" height="28" fill="none"><path stroke="#000" d="M13.946 1h-1.892A2.554 2.554 0 0 0 9.5 3.554v.07c0 .853-.448 1.645-1.18 2.084l-.122.073a2.21 2.21 0 0 1-2.36-.056 2.21 2.21 0 0 0-3.063.612L1.45 8.324a2.44 2.44 0 0 0 .82 3.473 2.44 2.44 0 0 1 1.23 2.12v.111c0 .91-.488 1.75-1.278 2.202a2.536 2.536 0 0 0-.932 3.48l.933 1.601a2.565 2.565 0 0 0 3.485.927 2.54 2.54 0 0 1 2.563.025A2.54 2.54 0 0 1 9.5 24.438 2.56 2.56 0 0 0 12.054 27h1.892a2.56 2.56 0 0 0 2.554-2.562c0-.89.466-1.718 1.229-2.175a2.54 2.54 0 0 1 2.563-.025 2.565 2.565 0 0 0 3.485-.927l.933-1.6a2.536 2.536 0 0 0-.932-3.48 2.54 2.54 0 0 1-1.278-2.203v-.056c0-.91.488-1.75 1.278-2.202a2.536 2.536 0 0 0 .933-3.48l-.934-1.601a2.565 2.565 0 0 0-3.485-.927 2.54 2.54 0 0 1-2.563-.025A2.54 2.54 0 0 1 16.5 3.562 2.56 2.56 0 0 0 13.946 1Z"/><circle cx="13" cy="14" r="4.5" stroke="#000"/></svg>