<svg width="20" height="14" viewBox="0 0 20 14" fill="none" xmlns="http://www.w3.org/2000/svg">
<path d="M12.3998 8H1C0.447715 8 0 7.55228 0 7C0 6.44772 0.447715 6 1 6H12.3998C13.9251 6 14.5989 4.07915 13.4078 3.12626L13.1231 2.89849C12.524 2.41918 12.4745 1.52552 13.017 0.982983C13.5473 0.45274 14.4167 0.48613 14.9047 1.05548L19.0796 5.92625C19.599 6.53214 19.5643 7.43572 19 8L14.8963 12.9245C14.415 13.502 13.5417 13.5417 13.01 13.01C12.4712 12.4712 12.5204 11.5837 13.1154 11.1077L13.4078 10.8737C14.5989 9.92085 13.9251 8 12.3998 8Z" fill="white"/>
</svg>
